<svg width="36" height="36" viewBox="0 0 36 36" fill="none" xmlns="http://www.w3.org/2000/svg">
<path d="M4.82846 6.42146C4.72386 6.31686 4.64089 6.19268 4.58428 6.05602C4.52767 5.91936 4.49854 5.77288 4.49854 5.62496C4.49854 5.47703 4.52767 5.33056 4.58428 5.19389C4.64089 5.05723 4.72386 4.93305 4.82846 4.82846C4.93305 4.72386 5.05723 4.64089 5.19389 4.58428C5.33056 4.52767 5.47703 4.49854 5.62496 4.49854C5.77288 4.49854 5.91936 4.52767 6.05602 4.58428C6.19268 4.64089 6.31686 4.72386 6.42146 4.82846L18 16.4092L29.5785 4.82846C29.6831 4.72386 29.8072 4.64089 29.9439 4.58428C30.0806 4.52767 30.227 4.49854 30.375 4.49854C30.5229 4.49854 30.6694 4.52767 30.806 4.58428C30.9427 4.64089 31.0669 4.72386 31.1715 4.82846C31.2761 4.93305 31.359 5.05723 31.4156 5.19389C31.4722 5.33056 31.5014 5.47703 31.5014 5.62496C31.5014 5.77288 31.4722 5.91936 31.4156 6.05602C31.359 6.19268 31.2761 6.31686 31.1715 6.42146L19.5907 18L31.1715 29.5785C31.2761 29.6831 31.359 29.8072 31.4156 29.9439C31.4722 30.0806 31.5014 30.227 31.5014 30.375C31.5014 30.5229 31.4722 30.6694 31.4156 30.806C31.359 30.9427 31.2761 31.0669 31.1715 31.1715C31.0669 31.2761 30.9427 31.359 30.806 31.4156C30.6694 31.4722 30.5229 31.5014 30.375 31.5014C30.227 31.5014 30.0806 31.4722 29.9439 31.4156C29.8072 31.359 29.6831 31.2761 29.5785 31.1715L18 19.5907L6.42146 31.1715C6.31686 31.2761 6.19268 31.359 6.05602 31.4156C5.91936 31.4722 5.77288 31.5014 5.62496 31.5014C5.47703 31.5014 5.33056 31.4722 5.19389 31.4156C5.05723 31.359 4.93305 31.2761 4.82846 31.1715C4.72386 31.0669 4.64089 30.9427 4.58428 30.806C4.52767 30.6694 4.49854 30.5229 4.49854 30.375C4.49854 30.227 4.52767 30.0806 4.58428 29.9439C4.64089 29.8072 4.72386 29.6831 4.82846 29.5785L16.4092 18L4.82846 6.42146Z" fill="white"/>
</svg>
